<?xml version="1.0" standalone="no"?>
<!DOCTYPE svg PUBLIC "-//W3C//DTD SVG 20010904//EN"
 "http://www.w3.org/TR/2001/REC-SVG-20010904/DTD/svg10.dtd">
<svg version="1.0" xmlns="http://www.w3.org/2000/svg"
 width="156.000000pt" height="186.000000pt" viewBox="0 0 156.000000 186.000000"
 preserveAspectRatio="xMidYMid meet">
<metadata>
Created by potrace 1.10, written by Peter Selinger 2001-2011
</metadata>
<g transform="translate(0.000000,186.000000) scale(0.100000,-0.100000)"
fill="#000000" stroke="none">
<path d="M22 953 l3 -908 745 0 745 0 3 908 2 907 -750 0 -750 0 2 -907z m808
743 c0 -20 -85 -29 -435 -42 -82 -3 -154 -10 -160 -15 -6 -6 -9 -159 -7 -412
3 -392 3 -402 24 -419 11 -10 28 -18 38 -18 10 0 30 -7 46 -15 36 -18 53 -5
35 28 -7 12 -16 47 -21 77 -9 57 -22 114 -45 190 -23 78 -28 140 -12 140 8 0
20 -7 27 -15 12 -15 77 -215 88 -274 7 -32 34 -62 47 -50 3 3 10 111 15 240 8
183 13 237 25 248 10 10 18 12 25 5 5 -5 11 -120 13 -267 3 -142 7 -261 11
-264 3 -3 8 3 12 13 3 10 12 33 19 49 7 17 34 91 60 165 25 74 53 153 62 175
8 22 22 58 30 80 29 77 55 125 64 120 14 -10 11 -39 -17 -132 -50 -168 -56
-188 -66 -228 -5 -22 -13 -49 -17 -60 -21 -54 -41 -125 -41 -143 0 -11 -7 -25
-15 -32 -19 -16 -19 -50 0 -50 8 0 15 5 15 12 0 6 7 18 15 27 29 31 163 205
220 286 115 163 261 345 277 345 29 0 21 -23 -39 -106 -31 -43 -131 -189 -221
-324 -90 -135 -170 -252 -178 -261 -17 -19 -18 -29 -3 -29 10 0 162 107 299
210 120 91 192 140 207 140 26 0 13 -28 -30 -63 -23 -19 -54 -45 -68 -58 -14
-13 -57 -49 -94 -79 -37 -30 -104 -86 -148 -123 -44 -38 -91 -75 -104 -84 -22
-15 -32 -43 -15 -43 5 0 38 9 73 20 35 11 89 27 119 36 30 8 69 20 85 26 17 5
46 14 65 18 19 4 50 14 67 21 25 10 36 10 44 2 23 -23 -1 -41 -108 -77 -59
-20 -120 -43 -135 -51 -14 -8 -34 -15 -45 -15 -10 0 -27 -7 -37 -15 -11 -8
-30 -15 -42 -15 -23 0 -41 -16 -30 -27 3 -4 97 -12 208 -20 111 -7 204 -15
206 -18 2 -2 2 -11 -1 -20 -5 -11 -22 -15 -64 -16 -186 -4 -343 -15 -344 -24
-1 -9 31 -23 181 -73 36 -13 74 -27 85 -32 11 -4 31 -11 45 -14 38 -9 66 -34
53 -47 -12 -12 -75 -2 -173 27 -136 40 -258 65 -265 53 -6 -9 45 -129 54 -129
140 -3 493 0 500 4 14 9 23 178 30 536 5 272 8 325 20 325 8 0 18 -13 23 -30
11 -40 -1 -887 -13 -901 -10 -13 -1166 -18 -1187 -5 -8 5 -12 193 -13 758 -1
413 2 756 5 762 5 8 104 11 332 11 272 0 324 -2 324 -14z"/>
<path d="M239 723 c-1 -5 -1 -107 1 -228 1 -151 5 -224 13 -232 16 -16 470
-20 475 -4 5 16 -78 155 -135 226 -63 77 -159 155 -255 205 -76 40 -97 47 -99
33z"/>
</g>
</svg>
