<?xml version="1.0" standalone="no"?>
<!DOCTYPE svg PUBLIC "-//W3C//DTD SVG 20010904//EN"
 "http://www.w3.org/TR/2001/REC-SVG-20010904/DTD/svg10.dtd">
<svg version="1.0" xmlns="http://www.w3.org/2000/svg"
 width="600.000000pt" height="600.000000pt" viewBox="0 0 600.000000 600.000000"
 preserveAspectRatio="xMidYMid meet">
<metadata>
Created by potrace 1.10, written by Peter Selinger 2001-2011
</metadata>
<g transform="translate(0.000000,600.000000) scale(0.100000,-0.100000)"
fill="#000000" stroke="none">
<path d="M2100 5048 c-36 -36 -198 -201 -361 -365 -163 -164 -313 -318 -333
-341 l-36 -44 0 -1309 0 -1308 59 -68 c54 -62 296 -311 613 -631 l122 -122
826 0 826 0 124 127 c69 69 197 199 285 288 88 88 211 214 273 280 l112 119 0
1312 0 1312 -36 44 c-29 34 -150 161 -214 223 -5 6 -129 131 -274 278 l-265
269 -828 1 -828 2 -65 -67z m1703 11 c19 -11 111 -103 600 -598 l158 -160 -3
-1310 -3 -1310 -207 -208 c-113 -114 -282 -286 -375 -380 l-169 -173 -809 0
-809 0 -380 382 -381 383 -3 1280 c-2 704 0 1294 3 1310 4 23 94 119 367 395
198 201 372 372 386 382 22 15 97 16 814 17 569 1 795 -2 811 -10z"/>
<path d="M2231 4939 c-13 -5 -150 -138 -305 -296 -154 -157 -307 -311 -338
-341 l-58 -56 0 -1256 0 -1256 58 -56 c31 -30 187 -187 345 -349 l288 -294
752 -3 c414 -1 761 -1 772 2 20 5 113 96 510 500 l195 199 0 1252 0 1251 -23
30 c-13 16 -88 94 -166 174 -79 80 -214 216 -300 303 -86 88 -168 170 -184
183 l-27 23 -748 0 c-454 0 -756 -4 -771 -10z m1368 -861 l141 -141 0 -945 0
-944 -97 -101 c-54 -55 -119 -120 -144 -144 l-46 -43 -451 0 -452 0 -140 138
-140 138 0 954 0 954 138 138 137 138 456 0 457 0 141 -142z"/>
<path d="M2994 4100 c-336 -4 -404 -7 -420 -20 -10 -8 -58 -54 -106 -102 l-88
-86 0 -880 c0 -484 -3 -887 -6 -896 -4 -10 28 -50 102 -126 l107 -110 419 0
418 0 100 101 100 100 0 903 0 903 -108 112 c-59 61 -110 110 -112 109 -3 -2
-185 -5 -406 -8z m427 -72 c16 -18 58 -61 92 -96 l62 -62 2 -887 3 -887 -78
-76 c-43 -42 -87 -82 -99 -88 -15 -9 -135 -12 -409 -12 l-387 0 -93 92 -94 92
0 884 0 884 95 94 94 94 391 0 391 0 30 -32z"/>
</g>
</svg>
